<?xml version="1.0" standalone="no"?>
<!DOCTYPE svg PUBLIC "-//W3C//DTD SVG 20010904//EN"
 "http://www.w3.org/TR/2001/REC-SVG-20010904/DTD/svg10.dtd">
<svg version="1.0" xmlns="http://www.w3.org/2000/svg"
 width="1024.000000pt" height="1024.000000pt" viewBox="0 0 1024.000000 1024.000000"
 preserveAspectRatio="xMidYMid meet">
<metadata>
Created by potrace 1.11, written by Peter Selinger 2001-2013
</metadata>
<g transform="translate(0.000000,1024.000000) scale(0.100000,-0.100000)"
fill="#000000" stroke="none">
<path d="M4908 10235 c-1 -2 -34 -6 -73 -8 -101 -8 -165 -16 -290 -38 -127
-21 -124 -21 -230 -49 -44 -12 -84 -23 -90 -24 -87 -20 -291 -96 -410 -152
-28 -13 -56 -24 -63 -24 -6 0 -12 -4 -12 -10 0 -5 -6 -10 -13 -10 -16 0 -172
-84 -252 -135 -31 -19 -60 -35 -65 -35 -6 0 -10 -4 -10 -10 0 -5 -5 -10 -10
-10 -6 0 -37 -19 -68 -42 -87 -63 -206 -152 -218 -163 -6 -5 -40 -35 -75 -65
-192 -165 -420 -422 -557 -626 -76 -114 -111 -171 -112 -181 0 -6 -3 -13 -7
-15 -9 -3 -26 -34 -95 -168 -26 -52 -48 -100 -48 -107 0 -6 -3 -13 -7 -15 -5
-1 -19 -30 -32 -63 -13 -33 -29 -73 -36 -90 -17 -41 -49 -128 -51 -140 -1 -5
-10 -32 -19 -60 -10 -27 -19 -57 -20 -65 -2 -8 -4 -15 -5 -15 -1 0 -3 -7 -5
-15 -2 -8 -10 -42 -19 -75 -9 -33 -19 -76 -22 -95 -3 -19 -10 -51 -15 -71 -10
-42 -17 -81 -24 -159 -3 -30 -8 -61 -11 -69 -2 -7 -7 -54 -11 -105 -9 -119
-10 -4291 -1 -4376 8 -73 33 -241 41 -280 2 -8 7 -33 11 -55 4 -22 11 -56 16
-75 5 -19 19 -75 30 -125 12 -49 28 -107 36 -127 7 -21 11 -38 7 -38 -4 0 -2
-5 5 -12 7 -7 12 -22 12 -33 0 -12 3 -25 8 -29 4 -4 8 -12 8 -17 1 -5 3 -11 4
-14 1 -3 3 -8 5 -12 21 -78 120 -310 186 -440 66 -129 216 -377 238 -393 4 -3
22 -27 41 -55 19 -27 36 -52 39 -55 3 -3 35 -39 70 -80 75 -87 233 -245 310
-310 30 -25 60 -51 67 -57 7 -7 17 -13 23 -13 6 0 11 -4 11 -9 0 -4 19 -21 42
-37 24 -16 45 -31 48 -34 16 -17 109 -80 119 -80 6 0 11 -4 11 -9 0 -5 14 -14
30 -21 17 -7 30 -16 30 -20 0 -5 12 -13 28 -19 26 -10 61 -30 72 -41 17 -16
264 -138 385 -190 55 -23 114 -48 130 -55 17 -7 95 -34 175 -60 80 -27 152
-50 160 -53 19 -7 18 -6 65 -17 22 -5 42 -9 45 -10 7 -1 129 -25 155 -30 11
-2 20 -4 20 -5 0 -1 11 -3 25 -4 76 -9 138 -19 157 -27 30 -11 609 -10 658 1
22 5 60 12 85 16 42 5 58 8 120 20 14 2 48 9 75 14 85 16 179 39 270 67 72 22
255 84 290 99 17 7 33 13 37 14 43 8 408 193 457 231 13 11 29 19 37 19 7 0
14 3 16 8 2 4 30 25 63 46 61 40 241 171 261 190 6 6 40 36 75 66 114 98 270
260 367 380 29 36 57 71 62 77 15 18 103 142 115 161 6 9 25 38 43 64 17 26
32 50 32 52 0 2 19 37 43 78 49 83 167 322 167 338 0 6 6 21 14 33 14 22 95
254 117 337 7 25 14 50 15 55 11 36 46 194 49 215 1 14 5 34 8 45 3 11 9 40
12 65 3 25 8 56 10 70 2 14 7 48 10 75 3 28 9 79 12 115 10 85 10 4235 0 4365
-4 55 -9 110 -11 122 -3 11 -7 43 -11 70 -4 26 -13 82 -22 123 -8 41 -17 86
-19 100 -3 14 -8 34 -11 45 -4 11 -7 22 -8 25 -2 14 -28 108 -35 125 -4 11
-20 58 -35 105 -61 186 -204 508 -269 603 -14 21 -26 40 -26 42 0 5 -83 139
-90 145 -3 3 -26 34 -50 70 -48 72 -99 138 -169 219 -46 54 -65 75 -147 162
-80 87 -248 233 -404 352 -52 40 -110 77 -119 77 -6 0 -11 4 -11 9 0 5 -10 13
-22 17 -12 3 -30 14 -40 24 -10 9 -31 23 -46 31 -15 7 -39 21 -53 31 -14 10
-29 15 -33 11 -3 -3 -6 -1 -6 5 0 7 -4 12 -8 12 -5 0 -45 20 -90 44 -45 24
-82 43 -82 41 0 -2 -26 9 -57 24 -107 53 -405 157 -504 176 -10 2 -23 6 -27 9
-5 3 -24 8 -43 11 -19 3 -53 10 -77 16 -23 5 -59 12 -78 15 -20 3 -46 8 -58
10 -11 3 -39 7 -61 10 -22 3 -56 7 -75 10 -19 3 -51 7 -70 9 -43 5 -537 15
-542 10z m376 -633 c3 -5 -1 -9 -9 -9 -8 0 -12 4 -9 9 3 4 7 8 9 8 2 0 6 -4 9
-8z"/>
</g>
</svg>
