<?xml version="1.0" encoding="utf-8"?>
<!-- Generator: Adobe Illustrator 19.0.0, SVG Export Plug-In . SVG Version: 6.00 Build 0)  -->
<svg version="1.1" xmlns="http://www.w3.org/2000/svg" xmlns:xlink="http://www.w3.org/1999/xlink" x="0px" y="0px"
	 viewBox="0 0 320.1 511.8" style="enable-background:new 0 0 320.1 511.8;" xml:space="preserve">
<style type="text/css">
	.st0{fill:#BB1E5C;}
	.st1{fill:#FFFFFF;}
</style>
<g id="bg">
	<rect id="bg-sm" x="93.6" y="70.1" class="st0" width="136.7" height="201.9"/>
</g>
<g id="Mouse">
	<path id="Body_Rim" d="M147.1,511.8c-9.6-1.8-19.5-2.8-28.8-5.7C52.2,485.8,12.9,441.3,1.7,373c-2.5-15-1.5-30.6-1.5-45.9
		c-0.1-56.8-0.2-113.7,0-170.5C0.6,80.4,59.7,12.8,135.2,1.8c85.3-12.4,162.1,40.4,181.4,124.6c4.3,18.7,3.4,37.8,3.4,56.7
		c0,55.7,0,111.3,0,167c-0.1,77.2-51,141-126.4,158.1c-6.8,1.5-13.7,2.4-20.6,3.6C164.4,511.8,155.7,511.8,147.1,511.8z M288.1,256
		c0-24.7,0.2-49.3-0.1-74c-0.2-14.3,0.1-28.8-2-42.8C275.9,71.5,210.9,23.5,143,32.9C79.7,41.7,32.3,95.8,32.1,159.8
		c-0.2,63.3-0.1,126.7,0.1,190c0,7.3,0.6,14.7,1.7,21.9c11.9,75.5,87,123.8,160.6,103.3c55.4-15.5,93.4-65.8,93.6-124.4
		C288.2,319,288.1,287.5,288.1,256z"/>
	<g id="XMLID_1_">
		<g id="XMLID_26_">
			<path id="XMLID_27_" class="st1" d="M160.1,32L160.1,32C88.6,32,30.7,89.9,30.7,161.3v189.1c0,71.5,57.9,129.4,129.4,129.4h0
				c71.5,0,129.4-57.9,129.4-129.4V161.3C289.5,89.9,231.6,32,160.1,32z M192,193.1c0,15.8-16.3,30.7-31.9,30.7
				c-15.6,0-31.9-15.8-32-31.8c0-10.8,0-21.7,0-32.5c0.1-17.1,14.3-31.6,30.9-31.6c18.8,0,33,13.4,33,31.5V193.1z"/>
		</g>
	</g>
</g>
</svg>
